# xmcd
#
# Track frame offsets: 
#        150
#        21726
#        43085
#        66830
#        85707
#        106540
#        127623
#        146960
#        176954
#        196843
#        219701
#        240997
#        255124
#        273864
#        290549
#        311418
#
# Disc length: 4454 seconds
#
# Revision: 0
# Processed by: cddbd v1.5.2PL0 Copyright (c) Steve Scherf et al.
# Submitted via: ExactAudioCopy v1.5
#
DISCID=df116410
DTITLE=张学友 - 张学友典藏极品
DYEAR=1900
DGENRE=Pop
TTITLE0=一路上有你
TTITLE1=每天爱你多一些
TTITLE2=回头太难
TTITLE3=情网
TTITLE4=祝福
TTITLE5=一千个伤心的理由
TTITLE6=你知不知道
TTITLE7=秋意浓
TTITLE8=偷心
TTITLE9=吻别
TTITLE10=我等到花儿也谢了
TTITLE11=每次都想呼喊你的名字
TTITLE12=情书
TTITLE13=真爱
TTITLE14=对你的爱越深就越心痛
TTITLE15=谁想轻轻偷走我的吻
EXTD=
EXTT0=
EXTT1=
EXTT2=
EXTT3=
EXTT4=
EXTT5=
EXTT6=
EXTT7=
EXTT8=
EXTT9=
EXTT10=
EXTT11=
EXTT12=
EXTT13=
EXTT14=
EXTT15=
PLAYORDER=
